<?xml version="1.0" standalone="no"?>
<!DOCTYPE svg PUBLIC "-//W3C//DTD SVG 20010904//EN"
 "http://www.w3.org/TR/2001/REC-SVG-20010904/DTD/svg10.dtd">
<svg version="1.0" xmlns="http://www.w3.org/2000/svg"
 width="150.000000pt" height="150.000000pt" viewBox="0 0 150.000000 150.000000"
 preserveAspectRatio="xMidYMid meet">

<g transform="translate(0.000000,150.000000) scale(0.100000,-0.100000)"
fill="#000000" stroke="none">
<path d="M645 1475 c-5 -2 -35 -11 -65 -20 -81 -23 -84 -26 -63 -63 22 -38 27
-39 58 -8 12 13 39 33 58 45 19 12 40 28 47 36 10 12 9 15 -6 14 -11 0 -23 -2
-29 -4z"/>
<path d="M815 1460 c11 -12 32 -28 47 -36 15 -8 38 -25 52 -39 14 -14 29 -25
35 -25 5 0 7 -10 5 -22 -3 -15 2 -9 16 14 22 41 47 58 82 57 25 -1 19 -4 -24
-13 -44 -10 -58 -50 -58 -168 0 -86 -3 -108 -20 -133 -38 -58 -72 -126 -66
-132 12 -12 99 53 121 91 28 48 31 83 13 185 -9 55 -9 75 0 97 l13 27 24 -23
c19 -18 22 -27 15 -41 -8 -14 -6 -19 10 -24 25 -8 50 10 50 37 0 12 4 16 11
12 21 -13 -1 49 -26 75 -26 27 -93 33 -120 11 -13 -11 -14 -10 -9 3 4 12 -8
20 -58 35 -35 11 -79 23 -98 27 l-35 7 20 -22z m290 -131 c5 -13 1 -27 -8 -37
-14 -14 -15 -13 -10 8 4 16 0 27 -12 36 -18 13 -18 14 2 14 13 0 24 -8 28 -21z"/>
<path d="M393 1415 c-35 -15 -53 -42 -52 -77 0 -22 1 -22 9 -3 7 17 9 15 9
-11 1 -36 23 -59 47 -50 10 4 13 13 9 26 -8 24 19 55 40 46 22 -8 28 -49 16
-106 -16 -75 -13 -141 7 -180 17 -31 101 -100 123 -100 12 0 -30 90 -57 123
-15 18 -24 40 -23 60 l1 32 7 -30 c9 -35 31 -79 37 -73 2 3 -3 27 -12 54 -9
27 -18 56 -20 64 -5 13 -6 13 -15 0 -9 -12 -10 -12 -5 3 3 10 6 43 6 73 0 32
4 53 9 49 6 -3 6 6 1 23 -14 50 -29 70 -61 81 -39 13 -37 13 -76 -4z m7 -18
c0 -2 -10 -12 -22 -23 l-23 -19 19 23 c18 21 26 27 26 19z m4 -61 c-16 -13
-17 -18 -6 -35 7 -12 8 -21 3 -21 -16 0 -23 20 -17 46 4 13 14 24 23 24 14 0
14 -2 -3 -14z"/>
<path d="M641 1398 c-85 -45 -103 -140 -49 -245 18 -33 23 -54 17 -64 -16 -26
-9 -51 26 -86 38 -38 42 -61 19 -108 -12 -25 -13 -26 -10 -6 5 23 4 23 -27 -7
-42 -40 -80 -54 -113 -42 -40 15 -46 12 -28 -15 16 -24 15 -25 -4 -25 -11 0
-28 -3 -38 -7 -12 -5 -15 -3 -9 6 6 10 2 11 -16 6 -39 -11 -102 -58 -121 -91
-20 -34 -38 -140 -19 -114 9 12 11 11 11 -7 0 -61 56 -112 104 -93 31 11 49
44 40 72 -6 20 -7 19 -20 -10 -15 -36 -43 -42 -65 -15 -8 9 -9 14 -2 10 14 -9
63 9 63 22 0 5 -8 7 -18 4 -12 -3 -22 3 -29 19 -11 22 -12 22 -12 3 -1 -12 5
-27 12 -35 10 -12 9 -12 -5 -1 -27 20 -22 66 10 101 25 28 36 32 129 44 57 8
114 21 127 29 l24 16 -14 -28 c-8 -16 -31 -48 -53 -72 -54 -62 -71 -100 -71
-159 0 -44 5 -56 29 -81 33 -33 80 -39 105 -13 23 22 20 37 -3 24 -28 -15 -67
-12 -81 5 -9 10 -9 15 -1 15 6 0 11 8 12 18 0 13 2 12 9 -5 6 -16 18 -23 35
-23 31 0 32 12 3 25 -14 6 -25 22 -29 40 l-6 30 -12 -25 c-11 -25 -11 -24 -6
5 4 18 31 55 70 95 34 36 72 83 84 105 l20 40 2 -30 c4 -63 -3 -111 -22 -142
l-18 -33 27 0 c21 0 24 -2 12 -10 -12 -8 -12 -10 5 -10 27 1 52 21 65 54 17
47 10 63 -10 20 -10 -23 -23 -44 -28 -48 -5 -3 -1 11 9 31 11 21 19 48 19 60
0 13 2 23 5 23 2 0 34 -29 71 -65 l66 -66 -4 -49 c-5 -45 -3 -49 11 -38 9 7 7
3 -4 -10 -20 -24 -45 -26 -90 -6 -19 8 -19 7 -4 -16 30 -45 98 -38 129 13 20
33 28 21 10 -14 -6 -10 -7 -19 -2 -19 34 0 43 139 13 198 -20 39 -71 93 -71
75 0 -6 7 -17 17 -24 26 -22 63 -111 62 -149 -1 -31 -2 -30 -9 13 -9 52 -45
120 -80 152 -25 22 -72 107 -49 88 22 -18 119 -43 168 -43 55 -1 85 -16 112
-56 23 -35 24 -54 4 -80 -14 -18 -14 -17 -10 16 5 29 4 31 -4 12 -6 -12 -17
-22 -26 -22 -28 0 -16 -17 17 -24 23 -4 29 -9 21 -17 -16 -16 -47 -7 -58 19
-13 29 -25 28 -25 -1 0 -36 23 -60 59 -60 35 0 81 36 81 64 0 10 5 21 10 24
13 8 13 66 -1 102 -19 52 -109 124 -151 123 -7 -1 4 -10 25 -21 20 -11 37 -22
37 -24 0 -3 -12 1 -27 9 -16 7 -43 17 -60 21 -29 6 -32 9 -22 27 14 26 8 30
-28 18 -38 -14 -69 -2 -113 41 -31 31 -32 32 -25 9 5 -18 4 -22 -3 -15 -18 17
-33 99 -20 104 7 2 23 15 36 28 19 19 23 32 20 66 -2 29 4 57 22 92 31 65 33
142 4 181 -39 54 -70 68 -147 72 -61 3 -79 0 -116 -20z m44 -348 c17 -19 17
-20 1 -20 -23 0 -56 18 -56 30 0 17 36 11 55 -10z m160 0 c-10 -11 -30 -20
-44 -20 l-26 1 24 19 c13 11 32 20 44 20 19 0 20 -1 2 -20z m310 -310 c10 -11
16 -20 13 -20 -3 0 -13 9 -23 20 -10 11 -16 20 -13 20 3 0 13 -9 23 -20z
m-825 -9 c-5 -11 -15 -23 -22 -27 -7 -5 -8 -2 -3 7 21 37 44 55 25 20z"/>
<path d="M259 1273 c-120 -125 -179 -255 -195 -428 -7 -82 10 -216 30 -229 11
-8 8 -15 -15 -39 -24 -24 -29 -37 -29 -77 0 -41 5 -54 34 -84 26 -29 41 -36
70 -36 76 0 116 42 116 121 0 33 -7 48 -34 75 -20 20 -44 34 -59 34 -22 0 -25
6 -36 57 -15 78 -14 196 4 272 21 87 85 207 148 275 50 53 52 57 39 81 -7 14
-16 25 -20 25 -4 0 -28 -21 -53 -47z m-49 -747 c0 -28 -13 -47 -42 -62 -57
-30 -82 16 -30 55 31 24 72 28 72 7z"/>
<path d="M1156 1292 c-15 -28 -14 -30 30 -73 103 -100 168 -259 169 -414 0
-49 -3 -109 -7 -132 -8 -39 -7 -42 22 -51 28 -10 30 -9 36 16 3 15 8 35 11 45
9 34 4 198 -8 256 -22 109 -83 228 -164 319 -56 63 -71 69 -89 34z"/>
<path d="M945 1173 c-4 -21 -13 -50 -22 -66 -21 -41 -8 -46 16 -6 12 19 21 51
21 72 0 47 -6 47 -15 0z"/>
<path d="M273 1109 c-44 -13 -79 -59 -92 -120 -15 -69 -9 -72 12 -5 12 37 29
65 54 86 31 28 42 31 84 28 51 -3 65 5 27 16 -29 7 -45 6 -85 -5z"/>
<path d="M1110 1105 c-24 -9 -29 -14 -15 -14 16 -1 13 -6 -15 -22 -19 -12 -55
-40 -80 -62 -25 -21 -64 -49 -87 -60 -40 -20 -41 -21 -26 -44 19 -28 54 -39
82 -24 11 6 40 38 65 70 58 74 108 99 161 77 21 -9 39 -26 45 -41 12 -32 13
-68 1 -61 -4 3 -13 -6 -19 -19 -15 -33 -48 -32 -66 3 l-15 27 -1 -26 c0 -34
23 -53 66 -53 66 0 99 72 70 154 -14 39 4 16 20 -27 l15 -38 -6 40 c-7 48 -30
82 -75 113 -37 25 -69 27 -120 7z m141 -42 c13 -16 12 -17 -3 -4 -10 7 -18 15
-18 17 0 8 8 3 21 -13z"/>
<path d="M255 1068 c-54 -43 -74 -144 -35 -186 53 -57 153 -20 124 46 -6 13
-8 11 -13 -13 -8 -39 -37 -44 -67 -11 -29 31 -31 65 -4 98 46 59 109 39 200
-63 68 -76 92 -85 128 -46 12 13 22 26 22 30 0 4 -19 16 -42 28 -24 12 -68 43
-100 70 -31 27 -68 53 -83 59 -44 17 -100 12 -130 -12z"/>
<path d="M276 998 c-32 -45 -10 -111 31 -92 16 7 16 8 -3 11 -47 9 -33 77 18
92 l33 9 -32 1 c-22 1 -37 -6 -47 -21z"/>
<path d="M1155 1013 c51 -13 77 -79 35 -90 -22 -6 -27 -23 -7 -23 22 0 37 23
37 56 0 40 -23 64 -58 63 -21 -1 -23 -2 -7 -6z"/>
<path d="M526 646 c-53 -56 -70 -143 -41 -213 17 -41 31 -40 15 1 -13 35 -13
107 0 142 6 15 24 44 41 65 38 48 28 51 -15 5z"/>
<path d="M1265 632 c-18 -13 -55 -89 -55 -115 0 -32 36 -77 61 -77 25 0 57 16
86 42 26 24 48 16 33 -12 -5 -10 -26 -24 -45 -30 -29 -10 -34 -14 -24 -26 34
-41 111 8 125 80 18 99 -57 139 -130 70 -29 -27 -41 -33 -50 -24 -11 12 4 28
50 56 16 10 17 13 5 28 -14 17 -39 21 -56 8z"/>
<path d="M906 501 c-5 -20 -16 -35 -27 -38 -25 -7 -25 -23 0 -23 27 0 43 24
39 62 l-3 33 -9 -34z"/>
<path d="M1160 450 c-28 -28 -26 -60 3 -60 13 0 36 -14 52 -30 23 -24 27 -34
19 -47 -6 -9 -15 -18 -21 -20 -17 -6 -73 47 -73 68 0 37 -31 35 -67 -4 -18
-20 -33 -41 -33 -46 0 -5 15 -19 33 -30 17 -12 48 -33 67 -47 51 -37 113 -15
144 51 21 43 13 74 -26 111 -16 16 -34 39 -39 52 -11 27 -33 28 -59 2z"/>
<path d="M243 395 c-35 -24 -48 -87 -27 -131 19 -40 63 -67 102 -62 36 4 45
45 11 50 -12 2 -27 11 -33 20 -15 25 4 73 29 73 16 0 21 -8 23 -38 4 -42 24
-57 53 -38 16 9 19 8 19 -9 0 -15 7 -20 25 -20 29 0 29 0 11 -45 -8 -19 -22
-35 -30 -35 -25 0 -19 -38 9 -56 14 -9 42 -17 63 -18 35 -1 37 0 34 28 -3 30
15 86 28 86 4 0 10 -7 14 -15 9 -24 36 -18 46 11 15 39 -1 57 -78 87 -77 30
-93 32 -109 16 -9 -9 -11 -7 -7 7 3 13 -8 33 -34 62 -34 37 -44 42 -83 42 -25
0 -54 -7 -66 -15z"/>
<path d="M918 273 c-59 -26 -73 -47 -40 -57 20 -7 53 -88 49 -121 -2 -17 4
-20 35 -19 61 2 89 41 51 69 -15 11 -14 14 14 28 48 26 58 72 21 107 -29 27
-61 25 -130 -7z m76 -54 c-8 -13 -24 -1 -24 18 0 13 3 13 15 3 8 -7 12 -16 9
-21z"/>
<path d="M659 221 c-24 -24 -29 -38 -29 -76 0 -57 12 -80 50 -100 55 -29 130
-12 164 37 9 12 16 40 16 61 0 31 -7 46 -34 73 -30 30 -40 34 -86 34 -44 0
-56 -4 -81 -29z m106 -51 c19 -37 19 -64 -1 -81 -14 -11 -19 -10 -35 10 -18
22 -26 81 -12 94 14 15 33 6 48 -23z"/>
</g>
</svg>
